 <svg width="100" height="101" viewBox="0 0 100 101" fill="none" xmlns="http://www.w3.org/2000/svg">
                            <circle opacity="0.2" cx="50" cy="50.5" r="50" fill="#E91E63"/>
                            <circle cx="50" cy="50.5" r="38" fill="#E91E63"/>
                            <g clip-path="url(#clip0_146_3985)">
                            <path d="M66.4701 37.872C67.3341 35.482 65.0181 33.166 62.6281 34.032L33.4181 44.596C31.0201 45.464 30.7301 48.736 32.9361 50.014L42.2601 55.412L50.5861 47.086C50.9633 46.7217 51.4685 46.5201 51.9929 46.5246C52.5173 46.5292 53.0189 46.7395 53.3897 47.1104C53.7605 47.4812 53.9709 47.9828 53.9754 48.5072C53.98 49.0316 53.7784 49.5368 53.4141 49.914L45.0881 58.24L50.4881 67.564C51.7641 69.77 55.0361 69.478 55.9041 67.082L66.4701 37.872Z" fill="#F2F8FF"/>
                            </g>
                            <defs>
                            <clipPath id="clip0_146_3985">
                            <rect width="48" height="48" fill="white" transform="translate(26 26.5)"/>
                            </clipPath>
                            </defs>
                            </svg>