<svg width="48" height="48" viewBox="0 0 48 48" fill="none" xmlns="http://www.w3.org/2000/svg">
<g clip-path="url(#clip0_617_1204)">
<path d="M16.5 34.5002C16.1022 34.5002 15.7206 34.3421 15.4393 34.0608C15.158 33.7795 15 33.398 15 33.0002V15.0002C15.0001 14.7446 15.0656 14.4933 15.1901 14.2701C15.3147 14.0469 15.4942 13.8592 15.7116 13.7249C15.929 13.5905 16.1772 13.514 16.4325 13.5025C16.6878 13.491 16.9419 13.5449 17.1705 13.6592L35.1705 22.6592C35.4193 22.7839 35.6285 22.9754 35.7748 23.2122C35.921 23.449 35.9984 23.7219 35.9984 24.0002C35.9984 24.2785 35.921 24.5513 35.7748 24.7882C35.6285 25.025 35.4193 25.2165 35.1705 25.3412L17.1705 34.3412C16.9623 34.4454 16.7328 34.4999 16.5 34.5002Z" fill="url(#paint0_linear_617_1204)"/>
<g filter="url(#filter0_dddd_617_1204)">
<path d="M24 3C19.8466 3 15.7865 4.23163 12.333 6.53914C8.8796 8.84665 6.18798 12.1264 4.59854 15.9636C3.0091 19.8009 2.59323 24.0233 3.40352 28.0969C4.21381 32.1705 6.21386 35.9123 9.15077 38.8492C12.0877 41.7861 15.8295 43.7862 19.9031 44.5965C23.9767 45.4068 28.1991 44.9909 32.0364 43.4015C35.8736 41.812 39.1534 39.1204 41.4609 35.667C43.7684 32.2135 45 28.1534 45 24C45 18.4305 42.7875 13.089 38.8493 9.15076C34.911 5.21249 29.5696 3 24 3ZM35.1705 25.3425L17.1705 34.3425C16.9418 34.4568 16.6876 34.5107 16.4321 34.4992C16.1767 34.4876 15.9284 34.4109 15.711 34.2764C15.4935 34.1419 15.314 33.954 15.1896 33.7306C15.0651 33.5072 14.9999 33.2557 15 33V15C15.0001 14.7444 15.0656 14.4931 15.1901 14.2699C15.3147 14.0467 15.4942 13.859 15.7116 13.7247C15.929 13.5904 16.1772 13.5138 16.4325 13.5023C16.6878 13.4908 16.9419 13.5448 17.1705 13.659L35.1705 22.659C35.4193 22.7837 35.6285 22.9752 35.7748 23.212C35.921 23.4488 35.9984 23.7217 35.9984 24C35.9984 24.2783 35.921 24.5512 35.7748 24.788C35.6285 25.0248 35.4193 25.2163 35.1705 25.341" fill="#F2F8FF"/>
</g>
</g>
<defs>
<filter id="filter0_dddd_617_1204" x="-2" y="2" width="52" height="60" filterUnits="userSpaceOnUse" color-interpolation-filters="sRGB">
<feFlood flood-opacity="0" result="BackgroundImageFix"/>
<feColorMatrix in="SourceAlpha" type="matrix" values="0 0 0 0 0 0 0 0 0 0 0 0 0 0 0 0 0 0 127 0" result="hardAlpha"/>
<feOffset dy="1"/>
<feGaussianBlur stdDeviation="1"/>
<feColorMatrix type="matrix" values="0 0 0 0 0 0 0 0 0 0 0 0 0 0 0 0 0 0 0.1 0"/>
<feBlend mode="normal" in2="BackgroundImageFix" result="effect1_dropShadow_617_1204"/>
<feColorMatrix in="SourceAlpha" type="matrix" values="0 0 0 0 0 0 0 0 0 0 0 0 0 0 0 0 0 0 127 0" result="hardAlpha"/>
<feOffset dy="3"/>
<feGaussianBlur stdDeviation="1.5"/>
<feColorMatrix type="matrix" values="0 0 0 0 0 0 0 0 0 0 0 0 0 0 0 0 0 0 0.09 0"/>
<feBlend mode="normal" in2="effect1_dropShadow_617_1204" result="effect2_dropShadow_617_1204"/>
<feColorMatrix in="SourceAlpha" type="matrix" values="0 0 0 0 0 0 0 0 0 0 0 0 0 0 0 0 0 0 127 0" result="hardAlpha"/>
<feOffset dy="7"/>
<feGaussianBlur stdDeviation="2"/>
<feColorMatrix type="matrix" values="0 0 0 0 0 0 0 0 0 0 0 0 0 0 0 0 0 0 0.05 0"/>
<feBlend mode="normal" in2="effect2_dropShadow_617_1204" result="effect3_dropShadow_617_1204"/>
<feColorMatrix in="SourceAlpha" type="matrix" values="0 0 0 0 0 0 0 0 0 0 0 0 0 0 0 0 0 0 127 0" result="hardAlpha"/>
<feOffset dy="12"/>
<feGaussianBlur stdDeviation="2.5"/>
<feColorMatrix type="matrix" values="0 0 0 0 0 0 0 0 0 0 0 0 0 0 0 0 0 0 0.01 0"/>
<feBlend mode="normal" in2="effect3_dropShadow_617_1204" result="effect4_dropShadow_617_1204"/>
<feBlend mode="normal" in="SourceGraphic" in2="effect4_dropShadow_617_1204" result="shape"/>
</filter>
<linearGradient id="paint0_linear_617_1204" x1="25.4992" y1="44.2375" x2="25.4992" y2="5.49106" gradientUnits="userSpaceOnUse">
<stop offset="0.03" stop-color="#3E0400"/>
<stop offset="0.08" stop-color="#460600"/>
<stop offset="0.16" stop-color="#5F0D00"/>
<stop offset="0.26" stop-color="#861900"/>
<stop offset="0.38" stop-color="#BD2900"/>
<stop offset="0.4" stop-color="#C62C00"/>
<stop offset="0.9" stop-color="#D33100"/>
</linearGradient>
<clipPath id="clip0_617_1204">
<rect width="48" height="48" fill="white"/>
</clipPath>
</defs>
</svg>
